<svg width="24" height="23" viewBox="0 0 24 23" fill="none" xmlns="http://www.w3.org/2000/svg">
<path d="M14.5733 0.0360263C17.4463 -0.0849737 20.6093 0.0120262 22.3093 1.72203C23.8493 3.25203 23.9453 6.21503 23.7823 9.20903C23.7443 9.91803 23.7053 10.617 23.7053 11.27C23.7053 14.9 22.6623 17.649 20.7223 19.578C18.6203 21.691 16.0433 22.754 12.9863 22.754H10.7673C10.1783 22.754 9.54127 22.801 8.88427 22.847L8.11127 22.9C5.61127 23.055 3.19427 22.849 1.69127 21.346C0.0962727 19.751 -0.0677277 16.296 0.0182723 12.993C0.0332723 12.4 0.0482711 11.819 0.0482711 11.27C0.0482711 7.85503 1.08027 5.19903 3.03227 3.26003C5.13327 1.14603 7.71027 0.0830263 10.7673 0.0830263H12.9863C13.4793 0.0830263 14.0163 0.0590263 14.5733 0.0360263Z" fill="white"/>
<path fill-rule="evenodd" clip-rule="evenodd" d="M19.2667 4.5221L14.7052 14.1536L9.43297 8.88141L19.2667 4.5221Z" fill="#C74923"/>
<path fill-rule="evenodd" clip-rule="evenodd" d="M5.07295 18.7159L14.7052 14.1536L9.43297 8.88141L5.07295 18.7159Z" fill="#1353A2"/>
<path d="M11.3591 12.2274C11.7512 12.6195 12.3869 12.6195 12.779 12.2274C13.1711 11.8354 13.1711 11.1997 12.779 10.8076C12.3869 10.4155 11.7512 10.4155 11.3591 10.8076C10.967 11.1997 10.967 11.8354 11.3591 12.2274Z" fill="white"/>
</svg>
